<svg style="position: absolute; width: 0; height: 0; overflow: hidden;" version="1.1" xmlns="http://www.w3.org/2000/svg" xmlns:xlink="http://www.w3.org/1999/xlink">
    <defs>
        <!-- Navigation Icons -->
        <symbol id="navicon" viewBox="0 0 18 12">
            <path d="M3,18H21V16H3Zm0-5H21V11H3ZM3,6V8H21V6Z" transform="translate(-3 -6)" />
        </symbol>
        <symbol id="mailbox" width="20" height="22" viewBox="0 0 20 22">
            <path d="M20,6H10v6H8V4h6V0H6V6H4A2.006,2.006,0,0,0,2,8V20a2.006,2.006,0,0,0,2,2H20a2.006,2.006,0,0,0,2-2V8A2.006,2.006,0,0,0,20,6Z" transform="translate(-2)" />
        </symbol>
        <symbol id="contact" width="22" height="16" viewBox="0 0 22 16">
            <path d="M15,12a4,4,0,1,0-4-4A4,4,0,0,0,15,12ZM6,10V7H4v3H1v2H4v3H6V12H9V10Zm9,4c-2.67,0-8,1.34-8,4v2H23V18C23,15.34,17.67,14,15,14Z" transform="translate(-1 -4)" />
        </symbol>
        <symbol id="home" width="20" height="17" viewBox="0 0 20 17">
            <path d="M10,20V14h4v6h5V12h3L12,3,2,12H5v8Z" transform="translate(-2 -3)" />
        </symbol>
        <symbol id="settings" width="19.454" height="20" viewBox="0 0 19.454 20">
            <path d="M19.43,12.98A7.793,7.793,0,0,0,19.5,12a7.793,7.793,0,0,0-.07-.98l2.11-1.65a.5.5,0,0,0,.12-.64l-2-3.46a.5.5,0,0,0-.61-.22l-2.49,1a7.306,7.306,0,0,0-1.69-.98l-.38-2.65A.488.488,0,0,0,14,2H10a.488.488,0,0,0-.49.42L9.13,5.07a7.683,7.683,0,0,0-1.69.98l-2.49-1a.488.488,0,0,0-.61.22l-2,3.46a.493.493,0,0,0,.12.64l2.11,1.65A7.931,7.931,0,0,0,4.5,12a7.931,7.931,0,0,0,.07.98L2.46,14.63a.5.5,0,0,0-.12.64l2,3.46a.5.5,0,0,0,.61.22l2.49-1a7.306,7.306,0,0,0,1.69.98l.38,2.65A.488.488,0,0,0,10,22h4a.488.488,0,0,0,.49-.42l.38-2.65a7.683,7.683,0,0,0,1.69-.98l2.49,1a.488.488,0,0,0,.61-.22l2-3.46a.5.5,0,0,0-.12-.64ZM12,15.5A3.5,3.5,0,1,1,15.5,12,3.5,3.5,0,0,1,12,15.5Z" transform="translate(-2.271 -2)" />
        </symbol>
        <symbol id="admin" viewBox="0 0 24 24">
            <path d="M0 0h24v24H0z" fill="none" />
            <path d="M16.5 12c1.38 0 2.49-1.12 2.49-2.5S17.88 7 16.5 7C15.12 7 14 8.12 14 9.5s1.12 2.5 2.5 2.5zM9 11c1.66 0 2.99-1.34 2.99-3S10.66 5 9 5C7.34 5 6 6.34 6 8s1.34 3 3 3zm7.5 3c-1.83 0-5.5.92-5.5 2.75V19h11v-2.25c0-1.83-3.67-2.75-5.5-2.75zM9 13c-2.33 0-7 1.17-7 3.5V19h7v-2.25c0-.85.33-2.34 2.37-3.47C10.5 13.1 9.66 13 9 13z" />
        </symbol>

        <symbol id="voteup" width="12" height="7.41" viewBox="0 0 12 7.41">
            <path d="M7.41,15.41,12,10.83l4.59,4.58L18,14,12,8,6,14Z" transform="translate(-6 -8)" />
        </symbol>
        <symbol id="votedown" width="12" height="7.41" viewBox="0 0 12 7.41">
            <path d="M7.41,7.84,12,12.42l4.59-4.58L18,9.25l-6,6-6-6Z" transform="translate(-6 -7.84)" />
        </symbol>
        <symbol id="dropdown-icon" viewBox="0 0 9.204 36.815">
            <path d="M14.6,13.2A4.6,4.6,0,1,0,10,8.6,4.615,4.615,0,0,0,14.6,13.2Zm0,4.6a4.6,4.6,0,1,0,4.6,4.6A4.615,4.615,0,0,0,14.6,17.806Zm0,13.806a4.6,4.6,0,1,0,4.6,4.6A4.615,4.615,0,0,0,14.6,31.611Z" transform="translate(-10 -4)" />
        </symbol>
        <symbol id="dropdown-arrow" viewBox="0 0 24 24" width="24" height="24">
            <path d="M8.71 11.71l2.59 2.59c.39.39 1.02.39 1.41 0l2.59-2.59c.63-.63.18-1.71-.71-1.71H9.41c-.89 0-1.33 1.08-.7 1.71z" />
        </symbol>
        <symbol id="forward-arrow" viewBox="0 0 24 24" width="24" height="24">
            <path d="M0 0h24v24H0z" fill="none" />
            <path d="M12 4l-1.41 1.41L16.17 11H4v2h12.17l-5.58 5.59L12 20l8-8z" />
        </symbol>
        <symbol id="backwards-arrow" viewBox="0 0 24 24" width="24" height="24">
            <path d="M0 0h24v24H0z" fill="none" />
            <path d="M20 11H7.83l5.59-5.59L12 4l-8 8 8 8 1.41-1.41L7.83 13H20v-2z" />
        </symbol>
        <symbol id="double-arrow">
            <g><rect fill="none" height="24" width="24"/></g><g><g><polygon points="15.5,5 11,5 16,12 11,19 15.5,19 20.5,12"/><polygon points="8.5,5 4,5 9,12 4,19 8.5,19 13.5,12"/></g></g>
        </symbol>
        <symbol id="star" width="20" height="19" viewBox="0 0 20 19">
            <path d="M12,17.27,18.18,21l-1.64-7.03L22,9.24l-7.19-.61L12,2,9.19,8.63,2,9.24l5.46,4.73L5.82,21Z" transform="translate(-2 -2)" />
        </symbol>
        <symbol id="print" width="20" height="18" viewBox="0 0 20 18">
            <path d="M19,8H5a3,3,0,0,0-3,3v6H6v4H18V17h4V11A3,3,0,0,0,19,8ZM16,19H8V14h8Zm3-7a1,1,0,1,1,1-1A1,1,0,0,1,19,12ZM18,3H6V7H18Z" transform="translate(-2 -3)" />
        </symbol>
        <symbol id="rating-star" width="255" height="240" viewBox="0 0 51 48">
            <path d="m25,1 6,17h18l-14,11 5,17-15-10-15,10 5-17-14-11h18z" />
        </symbol>
        <symbol id="flag" width="15" height="17" viewBox="0 0 15 17">
            <path d="M14.4,6,14,4H5V21H7V14h5.6l.4,2h7V6Z" transform="translate(-5 -4)" />
        </symbol>
        <symbol id="circle-info" viewBox="0 0 24 24">
            <path d="M 12 2 C 6.4889971 2 2 6.4889971 2 12 C 2 17.511003 6.4889971 22 12 22 C 17.511003 22 22 17.511003 22 12 C 22 6.4889971 17.511003 2 12 2 z M 12 4 C 16.430123 4 20 7.5698774 20 12 C 20 16.430123 16.430123 20 12 20 C 7.5698774 20 4 16.430123 4 12 C 4 7.5698774 7.5698774 4 12 4 z M 11 7 L 11 9 L 13 9 L 13 7 L 11 7 z M 11 11 L 11 17 L 13 17 L 13 11 L 11 11 z" />
        </symbol>
        <symbol id="circle-x" viewBox="0 0 20 20">
            <path d="M14.59,8,12,10.59,9.41,8,8,9.41,10.59,12,8,14.59,9.41,16,12,13.41,14.59,16,16,14.59,13.41,12,16,9.41ZM12,2A10,10,0,1,0,22,12,9.991,9.991,0,0,0,12,2Zm0,18a8,8,0,1,1,8-8A8.011,8.011,0,0,1,12,20Z" transform="translate(-2 -2)" />
        </symbol>
        <symbol id="magnify" viewBox="0 0 40 40">
            <path d="M29.718,26.512H28.03l-.6-.577a13.915,13.915,0,1,0-1.5,1.5l.577.6v1.689L37.2,40.384,40.384,37.2Zm-12.825,0a9.619,9.619,0,1,1,9.619-9.619A9.606,9.606,0,0,1,16.894,26.512Z" transform="translate(-3 -3)" />
        </symbol>
        <symbol id="link-out" width="18" height="18" viewBox="0 0 18 18">
            <path d="M19,19H5V5h7V3H5A2,2,0,0,0,3,5V19a2,2,0,0,0,2,2H19a2.006,2.006,0,0,0,2-2V12H19ZM14,3V5h3.59L7.76,14.83l1.41,1.41L19,6.41V10h2V3Z" transform="translate(-3 -3)" />
        </symbol>
        <symbol id="link" width="20" height="10" viewBox="0 0 20 10">
            <path d="M3.9,12A3.1,3.1,0,0,1,7,8.9h4V7H7A5,5,0,0,0,7,17h4V15.1H7A3.1,3.1,0,0,1,3.9,12ZM8,13h8V11H8Zm9-6H13V8.9h4a3.1,3.1,0,1,1,0,6.2H13V17h4A5,5,0,0,0,17,7Z" transform="translate(-2 -7)" fill="#2699fb" />
        </symbol>
        <symbol id="exit" width="18" height="18" viewBox="0 0 24 24">
            <path d="M0 0h24v24H0z" fill="none" />
            <path d="M10.09 15.59L11.5 17l5-5-5-5-1.41 1.41L12.67 11H3v2h9.67l-2.58 2.59zM19 3H5c-1.11 0-2 .9-2 2v4h2V5h14v14H5v-4H3v4c0 1.1.89 2 2 2h14c1.1 0 2-.9 2-2V5c0-1.1-.9-2-2-2z" />
        </symbol>
        <symbol id="reply" width="14.122" height="11.769" viewBox="0 0 14.122 11.769">
            <path d="M8.492,8.138V5L3,10.492l5.492,5.492V12.767c3.923,0,6.669,1.255,8.63,4C16.338,12.846,13.984,8.923,8.492,8.138Z" transform="translate(-3 -5)" />
        </symbol>

        <symbol id="clear" width="14" height="14" viewBox="0 0 14 14">
            <path d="M19,6.41,17.59,5,12,10.59,6.41,5,5,6.41,10.59,12,5,17.59,6.41,19,12,13.41,17.59,19,19,17.59,13.41,12Z" transform="translate(-5 -5)" />
        </symbol>
        <symbol id="plus" viewBox="0 0 14 14">
            <path d="M19,13H13v6H11V13H5V11h6V5h2v6h6Z" transform="translate(-5 -5)" />
        </symbol>
        <symbol id="check" viewBox="0 0 17.59 13.41">
            <path d="M9,16.17,4.83,12,3.41,13.41,9,19,21,7,19.59,5.59Z" transform="translate(-3.41 -5.59)" />
        </symbol>
        <symbol id="check-circle" viewBox="0 0 24 24">
            <path d="M0 0h24v24H0z" fill="none" />
            <path d="M12 2C6.48 2 2 6.48 2 12s4.48 10 10 10 10-4.48 10-10S17.52 2 12 2zm-2 15l-5-5 1.41-1.41L10 14.17l7.59-7.59L19 8l-9 9z" />
        </symbol>
        <symbol id="post-add" viewBox="0 0 24 24">
            <g>
                <rect fill="none" height="24" width="24" />
            </g>
            <g>
                <g />
                <g>
                    <path d="M17,19.22H5V7h7V5H5C3.9,5,3,5.9,3,7v12c0,1.1,0.9,2,2,2h12c1.1,0,2-0.9,2-2v-7h-2V19.22z" />
                    <path d="M19,2h-2v3h-3c0.01,0.01,0,2,0,2h3v2.99c0.01,0.01,2,0,2,0V7h3V5h-3V2z" />
                    <rect height="2" width="8" x="7" y="9" />
                    <polygon points="7,12 7,14 15,14 15,12 12,12" />
                    <rect height="2" width="8" x="7" y="15" />
                </g>
            </g>
        </symbol>
        <symbol id="feed" viewBox="0 0 24 24">
            <svg xmlns="http://www.w3.org/2000/svg" enable-background="new 0 0 24 24" height="24" viewBox="0 0 24 24" width="24">
                <g>
                    <rect fill="none" height="24" width="24" />
                </g>
                <g>
                    <g />
                    <g>
                        <path d="M8,8H6v7c0,1.1,0.9,2,2,2h9v-2H8V8z" />
                        <path d="M20,3h-8c-1.1,0-2,0.9-2,2v6c0,1.1,0.9,2,2,2h8c1.1,0,2-0.9,2-2V5C22,3.9,21.1,3,20,3z M20,11h-8V7h8V11z" />
                        <path d="M4,12H2v7c0,1.1,0.9,2,2,2h9v-2H4V12z" />
                    </g>
                </g>
                <g display="none">
                    <g display="inline" />
                    <g display="inline">
                        <path d="M8,8H6v7c0,1.1,0.9,2,2,2h9v-2H8V8z" />
                        <path d="M20,3h-8c-1.1,0-2,0.9-2,2v6c0,1.1,0.9,2,2,2h8c1.1,0,2-0.9,2-2V5C22,3.9,21.1,3,20,3z M20,11h-8V7h8V11z" />
                        <path d="M4,12H2v7c0,1.1,0.9,2,2,2h9v-2H4V12z" />
                    </g>
                </g>
            </svg>
        </symbol>
        <symbol id="mail-unread" width="24" height="24" viewBox="0 0 24 24">
            <path d="M20 4H4c-1.1 0-1.99.9-1.99 2L2 18c0 1.1.9 2 2 2h16c1.1 0 2-.9 2-2V6c0-1.1-.9-2-2-2zm0 4l-8 5-8-5V6l8 5 8-5v2z" />
            <path d="M0 0h24v24H0z" fill="none" />
        </symbol>
        <symbol id="mail-read" width="24" height="24" viewBox="0 0 24 24">
            <path fill="none" d="M0 0h24v24H0z" />
            <path d="M20 4H4c-1.1 0-1.99.9-1.99 2L2 18c0 1.1.9 2 2 2h16c1.1 0 2-.9 2-2V6c0-1.1-.9-2-2-2zm0 14H4V8l8 5 8-5v10zm-8-7L4 6h16l-8 5z" />
        </symbol>
        <symbol id="attachment" viewBox="0 0 28 28">
            <path d="M19.989,6.714V19.857c0,2.526-2.447,4.571-5.469,4.571s-5.469-2.046-5.469-4.571V5.571a3.177,3.177,0,0,1,3.418-2.857,3.177,3.177,0,0,1,3.418,2.857v12a1.274,1.274,0,0,1-1.367,1.143,1.274,1.274,0,0,1-1.367-1.143V6.714H11.1V17.571a3.177,3.177,0,0,0,3.418,2.857,3.177,3.177,0,0,0,3.418-2.857v-12C17.938,3.046,15.491,1,12.469,1S7,3.046,7,5.571V19.857c0,3.474,3.363,6.286,7.52,6.286s7.52-2.811,7.52-6.286V6.714Z" />
        </symbol>
        <symbol id="upload" width="24" height="24" viewBox="0 0 24 24">
            <path fill="none" d="M0 0h24v24H0V0z" />
            <path d="M19.35 10.04C18.67 6.59 15.64 4 12 4 9.11 4 6.6 5.64 5.35 8.04 2.34 8.36 0 10.91 0 14c0 3.31 2.69 6 6 6h13c2.76 0 5-2.24 5-5 0-2.64-2.05-4.78-4.65-4.96zM19 18H6c-2.21 0-4-1.79-4-4 0-2.05 1.53-3.76 3.56-3.97l1.07-.11.5-.95C8.08 7.14 9.94 6 12 6c2.62 0 4.88 1.86 5.39 4.43l.3 1.5 1.53.11c1.56.1 2.78 1.41 2.78 2.96 0 1.65-1.35 3-3 3zM8 13h2.55v3h2.9v-3H16l-4-4z" />
        </symbol>
        <symbol id="dollar" width="24" height="24" viewBox="0 0 24 24">
            <path d="M11.8 10.9c-2.27-.59-3-1.2-3-2.15 0-1.09 1.01-1.85 2.7-1.85 1.78 0 2.44.85 2.5 2.1h2.21c-.07-1.72-1.12-3.3-3.21-3.81V3h-3v2.16c-1.94.42-3.5 1.68-3.5 3.61 0 2.31 1.91 3.46 4.7 4.13 2.5.6 3 1.48 3 2.41 0 .69-.49 1.79-2.7 1.79-2.06 0-2.87-.92-2.98-2.1h-2.2c.12 2.19 1.76 3.42 3.68 3.83V21h3v-2.15c1.95-.37 3.5-1.5 3.5-3.55 0-2.84-2.43-3.81-4.7-4.4z" />
            <path d="M0 0h24v24H0z" fill="none" />
        </symbol>
        <!-- socials -->
        <symbol id="google" viewBox="0 0 24 24">
            <path d="M12.24 10.285V14.4h6.806c-.275 1.765-2.056 5.174-6.806 5.174-4.095 0-7.439-3.389-7.439-7.574s3.345-7.574 7.439-7.574c2.33 0 3.891.989 4.785 1.849l3.254-3.138C18.189 1.186 15.479 0 12.24 0c-6.635 0-12 5.365-12 12s5.365 12 12 12c6.926 0 11.52-4.869 11.52-11.726 0-.788-.085-1.39-.189-1.989H12.24z" />
        </symbol>
        <symbol id="github" viewBox="0 0 16 16">
            <path d="M8 0C3.58 0 0 3.58 0 8C0 11.54 2.29 14.53 5.47 15.59C5.87 15.66 6.02 15.42 6.02 15.21C6.02 15.02 6.01 14.39 6.01 13.72C4 14.09 3.48 13.23 3.32 12.78C3.23 12.55 2.84 11.84 2.5 11.65C2.22 11.5 1.82 11.13 2.49 11.12C3.12 11.11 3.57 11.7 3.72 11.94C4.44 13.15 5.59 12.81 6.05 12.6C6.12 12.08 6.33 11.73 6.56 11.53C4.78 11.33 2.92 10.64 2.92 7.58C2.92 6.71 3.23 5.99 3.74 5.43C3.66 5.23 3.38 4.41 3.82 3.31C3.82 3.31 4.49 3.1 6.02 4.13C6.66 3.95 7.34 3.86 8.02 3.86C8.7 3.86 9.38 3.95 10.02 4.13C11.55 3.09 12.22 3.31 12.22 3.31C12.66 4.41 12.38 5.23 12.3 5.43C12.81 5.99 13.12 6.7 13.12 7.58C13.12 10.65 11.25 11.33 9.47 11.53C9.76 11.78 10.01 12.26 10.01 13.01C10.01 14.08 10 14.94 10 15.21C10 15.42 10.15 15.67 10.55 15.59C13.71 14.53 16 11.53 16 8C16 3.58 12.42 0 8 0Z" />
        </symbol>
        <symbol id="facebook" viewBox="0 0 60.734 60.733">
            <path d="M57.378,0.001H3.352C1.502,0.001,0,1.5,0,3.353v54.026c0,1.853,1.502,3.354,3.352,3.354h29.086V37.214h-7.914v-9.167h7.914v-6.76c0-7.843,4.789-12.116,11.787-12.116c3.355,0,6.232,0.251,7.071,0.36v8.198l-4.854,0.002c-3.805,0-4.539,1.809-4.539,4.462v5.851h9.078l-1.187,9.166h-7.892v23.52h15.475c1.852,0,3.355-1.503,3.355-3.351V3.351C60.731,1.5,59.23,0.001,57.378,0.001z" />
        </symbol>
        <symbol id="twitter" viewBox="0 0 16 16">
            <path d="M23.954 4.569c-.885.389-1.83.654-2.825.775 1.014-.611 1.794-1.574 2.163-2.723-.951.555-2.005.959-3.127 1.184-.896-.959-2.173-1.559-3.591-1.559-2.717 0-4.92 2.203-4.92 4.917 0 .39.045.765.127 1.124C7.691 8.094 4.066 6.13 1.64 3.161c-.427.722-.666 1.561-.666 2.475 0 1.71.87 3.213 2.188 4.096-.807-.026-1.566-.248-2.228-.616v.061c0 2.385 1.693 4.374 3.946 4.827-.413.111-.849.171-1.296.171-.314 0-.615-.03-.916-.086.631 1.953 2.445 3.377 4.604 3.417-1.68 1.319-3.809 2.105-6.102 2.105-.39 0-.779-.023-1.17-.067 2.189 1.394 4.768 2.209 7.557 2.209 9.054 0 13.999-7.496 13.999-13.986 0-.209 0-.42-.015-.63.961-.689 1.8-1.56 2.46-2.548l-.047-.02z"></path>
        </symbol>
        <symbol id="reddit" viewBox="0 0 128 128">
            <path d="M128,112c0,8.8-7.2,16-16,16H16c-8.8,0-16-7.2-16-16V16C0,7.2,7.2,0,16,0h96c8.8,0,16,7.2,16,16V112z" fill="#F54B00" />
            <path d="M114,61.087c0-6.409-5.215-11.623-11.623-11.623c-2.932,0-5.605,1.101-7.654,2.899   c-7.283-4.678-16.91-7.723-27.572-8.255l5.605-17.721l15.297,3.604c0.172,5.163,4.414,9.312,9.619,9.312   c5.312,0,9.637-4.322,9.637-9.636s-4.322-9.636-9.637-9.636c-3.857,0-7.186,2.285-8.723,5.567L71.76,21.554   c-1.141-0.268-2.295,0.388-2.646,1.504l-6.636,20.979c-11.352,0.223-21.65,3.288-29.369,8.172   c-2.023-1.709-4.636-2.745-7.484-2.745C19.213,49.464,14,54.678,14,61.087c0,4.081,2.118,7.668,5.307,9.743   c-0.163,1.039-0.25,2.094-0.25,3.162c0,16.527,20.068,29.977,44.738,29.977c24.667,0,44.738-13.449,44.738-29.977   c0-0.99-0.076-1.969-0.217-2.936C111.713,69.027,114,65.324,114,61.087z M97.672,24.51c2.846,0,5.158,2.314,5.158,5.158   c0,2.845-2.312,5.158-5.158,5.158s-5.158-2.313-5.158-5.158C92.514,26.825,94.826,24.51,97.672,24.51z M18.478,61.087   c0-3.94,3.205-7.146,7.146-7.146c1.33,0,2.574,0.373,3.643,1.011c-3.987,3.24-6.971,7.052-8.654,11.219   C19.295,64.875,18.478,63.076,18.478,61.087z M104.057,73.992c0,14.059-18.062,25.498-40.261,25.498   c-22.201,0-40.262-11.439-40.262-25.498c0-0.494,0.027-0.984,0.071-1.471c0.136-1.496,0.479-2.955,1.006-4.371   c1.365-3.672,3.983-7.04,7.56-9.911c1.145-0.919,2.385-1.787,3.711-2.598c7.244-4.421,17.084-7.148,27.914-7.148   c10.988,0,20.957,2.805,28.228,7.34c1.33,0.829,2.566,1.717,3.705,2.656c3.435,2.829,5.945,6.125,7.267,9.711   c0.522,1.42,0.866,2.883,0.996,4.383C104.031,73.051,104.057,73.52,104.057,73.992z M107.092,66.439   c-1.637-4.21-4.611-8.062-8.598-11.344c1.119-0.728,2.451-1.155,3.883-1.155c3.939,0,7.146,3.205,7.146,7.146   C109.521,63.219,108.578,65.129,107.092,66.439z" fill="#FFFFFF" />
            <path d="M55.911,68.602c0-3.774-3.062-6.941-6.838-6.941c-3.776,0-6.941,3.167-6.941,6.941   c0,3.775,3.166,6.838,6.941,6.838C52.848,75.438,55.911,72.377,55.911,68.602z" fill="#FFFFFF" />
            <path d="M79.029,61.659c-3.775,0-6.951,3.166-6.951,6.94c0,3.777,3.176,6.838,6.951,6.838   c3.777,0,6.838-3.061,6.838-6.838C85.867,64.824,82.807,61.659,79.029,61.659z" fill="#FFFFFF" />
            <path d="M77.1,85.178c-2.531,2.529-6.799,3.758-13.048,3.758c-0.018,0-0.035,0.006-0.053,0.006   c-0.02,0-0.035-0.006-0.055-0.006c-6.25,0-10.516-1.229-13.045-3.758c-0.874-0.873-2.292-0.873-3.166,0   c-0.874,0.875-0.874,2.293,0,3.166c3.411,3.412,8.715,5.07,16.211,5.07c0.02,0,0.035-0.006,0.055-0.006   c0.018,0,0.035,0.006,0.053,0.006c7.496,0,12.8-1.658,16.214-5.068c0.875-0.875,0.875-2.291,0.002-3.166   C79.393,84.305,77.975,84.305,77.1,85.178z" fill="#FFFFFF" />
        </symbol>
    </defs>
</svg>
